<?xml version="1.0" standalone="no"?>
<!DOCTYPE svg PUBLIC "-//W3C//DTD SVG 20010904//EN"
 "http://www.w3.org/TR/2001/REC-SVG-20010904/DTD/svg10.dtd">
<svg version="1.0" xmlns="http://www.w3.org/2000/svg"
 width="512.000000pt" height="512.000000pt" viewBox="0 0 512.000000 512.000000"
 preserveAspectRatio="xMidYMid meet">
<metadata>
Created by potrace 1.11, written by Peter Selinger 2001-2013
</metadata>
<g transform="translate(0.000000,512.000000) scale(0.100000,-0.100000)"
fill="#000000" stroke="none">
<path d="M1397 5110 c-167 -30 -298 -99 -412 -214 -145 -147 -204 -285 -213
-492 -3 -99 -1 -135 16 -201 41 -160 139 -314 258 -406 l55 -42 -3 -60 -3 -60
-101 -3 -101 -3 -17 -111 c-25 -159 -31 -345 -17 -476 l13 -111 -282 -502
c-154 -276 -280 -502 -278 -503 2 -2 141 -34 310 -72 l308 -69 0 -522 0 -523
415 0 415 0 0 -370 0 -370 990 0 990 0 0 578 1 577 57 42 c77 56 221 189 299
275 269 300 448 674 518 1082 40 231 43 708 7 956 l-17 115 -83 3 c-61 2 -82
6 -79 15 3 7 87 206 186 444 l181 432 0 296 c0 162 -2 295 -5 295 -3 0 -111
-79 -239 -176 l-234 -175 -242 -565 -242 -564 -193 0 -192 0 -76 163 -75 162
77 7 c127 12 199 42 263 112 71 76 88 149 88 376 l0 170 80 0 80 0 0 250 0
250 -245 0 -245 0 0 -250 0 -250 80 0 80 0 0 -189 c0 -179 -1 -190 -22 -221
-46 -68 -66 -75 -199 -75 l-120 0 -104 225 -104 225 126 63 127 64 -395 169
c-217 93 -403 172 -414 175 -19 5 -28 -19 -115 -327 l-95 -331 -11 75 c-40
254 -186 457 -408 566 -45 22 -108 47 -141 56 -73 19 -233 27 -298 15z m297
-188 c181 -65 318 -212 371 -396 37 -126 17 -298 -48 -420 -40 -75 -138 -181
-206 -221 l-50 -30 -3 -110 -3 -110 -82 -3 -83 -3 0 253 0 254 51 34 c204 138
111 450 -133 450 -106 0 -199 -69 -233 -170 -35 -107 5 -215 103 -280 l52 -34
-2 -251 -3 -250 -82 -3 -83 -3 0 110 0 110 -61 42 c-163 110 -252 261 -265
449 -20 265 157 513 421 592 84 25 256 20 339 -10z m2046 -52 l0 -80 -85 0
-85 0 0 80 0 80 85 0 85 0 0 -80z m-1021 -100 c83 -35 151 -67 151 -71 0 -4
-13 -12 -30 -19 -16 -7 -30 -17 -30 -22 0 -8 204 -458 232 -511 8 -16 0 -17
-148 -15 l-157 3 -68 150 c-38 83 -82 180 -99 218 l-30 67 -31 -16 c-17 -8
-33 -13 -35 -11 -7 7 78 298 86 295 4 -2 75 -32 159 -68z m1931 -40 c0 -27 -4
-50 -10 -50 -14 0 -80 33 -80 39 1 7 72 60 83 61 4 0 7 -22 7 -50z m-115 -182
c47 -23 85 -45 85 -48 0 -4 -81 -200 -179 -436 l-179 -429 -116 -3 c-64 -1
-116 -1 -116 2 0 3 86 204 190 446 105 243 197 457 205 476 8 19 16 34 19 34
3 0 44 -19 91 -42z m-2967 -124 c54 -61 -9 -150 -88 -123 -35 13 -50 35 -50
76 0 76 86 105 138 47z m942 -190 c28 -58 50 -107 50 -109 0 -1 -18 -5 -40 -8
-57 -7 -119 -40 -169 -89 -76 -75 -101 -153 -101 -308 l0 -90 -165 0 -165 0 0
64 0 64 55 42 c107 82 219 254 246 377 l13 55 105 53 c58 30 110 54 114 54 4
1 30 -47 57 -105z m198 -433 c40 -87 72 -161 72 -165 0 -3 -81 -6 -180 -6
l-180 0 0 109 c0 96 3 112 23 142 36 53 82 79 142 79 l51 0 72 -159z m491 5
c39 -85 71 -159 71 -165 0 -8 -46 -11 -152 -9 l-152 3 -73 155 c-39 85 -72
158 -72 163 -1 4 68 7 153 7 l153 0 72 -154z m1268 -363 c5 -16 8 -190 8 -388
0 -387 -4 -430 -61 -645 -117 -449 -405 -867 -771 -1122 l-73 -52 0 -533 0
-533 -825 0 -825 0 0 370 0 370 -410 0 -410 0 -2 502 -3 503 -263 60 c-145 34
-263 64 -264 69 0 4 107 197 237 429 l237 422 -12 97 c-12 109 -15 303 -4 409
l7 69 1713 0 1714 0 7 -27z"/>
<path d="M1265 3168 c29 -213 193 -358 405 -358 224 0 386 145 413 368 l5 42
-83 0 -82 0 -6 -45 c-20 -142 -145 -224 -297 -195 -104 20 -175 92 -187 188
l-6 52 -84 0 -85 0 7 -52z"/>
</g>
</svg>
